<?xml version="1.0" encoding="UTF-8"?>
<!DOCTYPE svg PUBLIC "-//W3C//DTD SVG 1.1//EN" "http://www.w3.org/Graphics/SVG/1.1/DTD/svg11.dtd">
<!-- Creator: CorelDRAW 2019 (64-Bit) -->
<svg xmlns="http://www.w3.org/2000/svg" xml:space="preserve" width="20.7935mm" height="13.3903mm" version="1.1" style="shape-rendering:geometricPrecision; text-rendering:geometricPrecision; image-rendering:optimizeQuality; fill-rule:evenodd; clip-rule:evenodd"
viewBox="0 0 3740.74 2408.91"
 xmlns:xlink="http://www.w3.org/1999/xlink">
 <defs>
  <style type="text/css">
   <![CDATA[
    .str7 {stroke:#FEFEFE;stroke-width:51.79;stroke-miterlimit:22.9256}
    .str3 {stroke:#FEFEFE;stroke-width:52.21;stroke-miterlimit:22.9256}
    .str4 {stroke:#FEFEFE;stroke-width:34.79;stroke-miterlimit:22.9256}
    .str6 {stroke:#FEFEFE;stroke-width:34.83;stroke-miterlimit:22.9256}
    .str5 {stroke:#FEFEFE;stroke-width:34.83;stroke-miterlimit:22.9256}
    .str0 {stroke:#FEFEFE;stroke-width:35.08;stroke-miterlimit:22.9256}
    .str2 {stroke:#FEFEFE;stroke-width:35.1;stroke-miterlimit:22.9256}
    .str1 {stroke:#FEFEFE;stroke-width:35.1;stroke-miterlimit:22.9256}
    .str8 {stroke:#FEFEFE;stroke-width:51.67;stroke-linecap:round;stroke-linejoin:round;stroke-miterlimit:22.9256}
    .fil0 {fill:none}
    .fil3 {fill:none;fill-rule:nonzero}
    .fil2 {fill:#E6E7E8}
    .fil1 {fill:#BDBFC1}
    .fil5 {fill:#ED3237}
    .fil6 {fill:#00AFEF}
    .fil4 {fill:#373435;fill-rule:nonzero}
    .fil7 {fill:#013D51;fill-rule:nonzero}
   ]]>
  </style>
 </defs>
 <g id="Capa_x0020_1">
  <metadata id="CorelCorpID_0Corel-Layer"/>
  <g>
   <path class="fil0 str0" d="M1168.14 211.06l-13.82 151.12c-25.74,4.17 -51.51,8.99 -77.46,14.5l-9.57 130.18 53.11 46.85 16.44 -0.22 -94.52 1381.25c256.99,56.52 437.35,-82.5 571.23,-159.82l-61.4 -1227.13 22.63 -0.32 45.28 -51.52 -8.37 -123.9c-24.9,-6.08 -50.03,-11.17 -75.43,-15.22l-12.14 -145.75 -161.53 -112.04 -6.58 -79.12 -24.97 -1.39 -1.4 77.21 -161.5 115.33zm5.61 36.47c18.64,-7.59 37.42,-13.96 56.24,-19.11l-5.15 116.38c-20.33,3.94 -40.46,8.67 -60.36,14.18 3.2,-35.28 6.06,-76.17 9.26,-111.45zm68.83 -22.36c29.7,-7.27 59.51,-11.55 89.14,-12.77l0 119.97c-32,1.26 -63.45,4.75 -94.38,10.13l5.24 -117.33zm101.55 -13.11c32.17,-0.43 64.04,2.84 95.26,9.79l1.42 115.15c-32.81,-4.07 -65.02,-5.63 -96.68,-4.97l0 -119.97zm107.67 12.77c21.95,5.61 43.52,12.99 64.58,22.29l7.12 105.24c-23.71,-5.88 -47.15,-10.4 -70.27,-13.73l-1.44 -113.8z"/>
   <path id="1" class="fil1" d="M1168.14 211.06l-13.82 151.12c-25.74,4.17 -51.51,8.99 -77.46,14.5l-9.57 130.18 53.11 46.85 16.44 -0.22 -94.52 1381.25c256.99,56.52 437.35,-82.5 571.23,-159.82l-61.4 -1227.13 22.63 -0.32 45.28 -51.52 -8.37 -123.9c-24.9,-6.08 -50.03,-11.17 -75.43,-15.22l-12.14 -145.75 -161.53 -112.04 -6.58 -79.12 -24.97 -1.39 -1.4 77.21 -161.5 115.33zm5.61 36.47c18.64,-7.59 37.42,-13.96 56.24,-19.11l-5.15 116.38c-20.33,3.94 -40.46,8.67 -60.36,14.18 3.2,-35.28 6.06,-76.17 9.26,-111.45zm68.83 -22.36c29.7,-7.27 59.51,-11.55 89.14,-12.77l0 119.97c-32,1.26 -63.45,4.75 -94.38,10.13l5.24 -117.33zm101.55 -13.11c32.17,-0.43 64.04,2.84 95.26,9.79l1.42 115.15c-32.81,-4.07 -65.02,-5.63 -96.68,-4.97l0 -119.97zm107.67 12.77c21.95,5.61 43.52,12.99 64.58,22.29l7.12 105.24c-23.71,-5.88 -47.15,-10.4 -70.27,-13.73l-1.44 -113.8z"/>
  </g>
  <g>
   <path class="fil0 str1" d="M43.75 2130.42c368.79,-497.4 806.22,-84.93 1234.83,-171.03 317.45,-63.77 741.02,-480.33 1214.21,-356.79 -536.19,136.69 -921.48,626.55 -1358.28,656.88 -518.52,36 -504.33,-281.94 -1090.77,-129.06z"/>
   <path id="1" class="fil2" d="M43.75 2130.42c368.79,-497.4 806.22,-84.93 1234.83,-171.03 317.45,-63.77 741.02,-480.33 1214.21,-356.79 -536.19,136.69 -921.48,626.55 -1358.28,656.88 -518.52,36 -504.33,-281.94 -1090.77,-129.06z"/>
  </g>
  <g>
   <path class="fil0 str2" d="M843.33 2286.4c824.91,247.07 906.87,52.71 1335.81,-526.26 -477.47,312.4 -871.16,634.74 -1335.81,526.26z"/>
   <path id="1" class="fil2" d="M843.33 2286.4c824.91,247.07 906.87,52.71 1335.81,-526.26 -477.47,312.4 -871.16,634.74 -1335.81,526.26z"/>
  </g>
  <g>
   <path class="fil3 str3" d="M1453.28 1667.31c0,4.71 -1.48,9.19 -4.71,13.17 -3.22,3.72 -8.44,6.94 -15.63,9.43 -7.21,2.23 -17.14,4.23 -29.05,5.7 -12.16,1.49 -27.79,2.23 -46.67,2.23 -18.37,0 -33.77,-0.74 -46.18,-2.23 -12.41,-1.48 -22.34,-3.47 -29.54,-5.7 -7.2,-2.48 -12.41,-5.7 -15.65,-9.43 -3.22,-3.98 -4.71,-8.46 -4.71,-13.17l0 -889.24c0,-4.71 1.49,-9.19 4.71,-13.17 3.24,-3.72 8.46,-6.94 16.15,-9.43 7.45,-2.48 17.13,-4.21 29.29,-5.7 12.16,-1.49 27.56,-2.23 45.93,-2.23 18.87,0 34.5,0.74 46.67,2.23 11.91,1.49 21.84,3.22 29.05,5.7 7.2,2.48 12.41,5.7 15.63,9.43 3.24,3.98 4.71,8.46 4.71,13.17l0 889.24zm763.64 -256.45c0,49.65 -9.19,92.85 -27.56,130.34 -18.62,37.24 -43.45,68.27 -74.96,93.35 -31.79,24.83 -68.52,43.68 -110.73,56.34 -42.2,12.66 -87.38,18.87 -135.54,18.87 -32.53,0 -62.57,-2.73 -90.62,-8.19 -27.81,-5.47 -52.39,-11.93 -73.74,-19.63 -21.35,-7.45 -39.22,-15.38 -53.63,-23.82 -14.39,-8.46 -24.57,-15.89 -31.03,-22.09 -6.21,-6.46 -10.67,-15.65 -13.4,-27.56 -2.73,-11.93 -3.96,-28.8 -3.96,-51.15 0,-15.15 0.49,-27.56 1.48,-37.74 1.01,-10.16 2.48,-18.37 4.73,-24.81 2.23,-6.21 5.2,-10.69 8.69,-13.42 3.72,-2.73 7.93,-3.96 12.9,-3.96 6.71,0 16.39,3.96 28.8,12.16 12.41,7.93 28.3,16.87 47.66,26.55 19.38,9.68 42.71,18.62 69.77,26.57 26.81,8.19 58.09,12.16 93.58,12.16 23.35,0 44.2,-2.73 62.57,-8.19 18.62,-5.72 34.25,-13.42 47.17,-23.58 12.9,-10.18 22.6,-22.6 29.54,-37.49 6.71,-14.9 10.18,-31.54 10.18,-49.9 0,-21.35 -5.72,-39.72 -17.38,-54.87 -11.68,-15.38 -26.81,-28.78 -45.68,-40.71 -18.62,-11.91 -39.97,-23.08 -63.81,-33.52 -23.58,-10.42 -48.16,-21.34 -73.47,-33.01 -25.33,-11.68 -49.9,-24.83 -73.49,-39.72 -23.84,-14.64 -45.19,-32.27 -63.81,-52.87 -18.85,-20.62 -34,-44.94 -45.68,-73.24 -11.66,-28.05 -17.38,-61.81 -17.38,-101.05 0,-44.92 8.46,-84.64 25.08,-118.91 16.64,-34 39.22,-62.3 67.53,-84.89 28.55,-22.6 61.81,-39.47 100.29,-50.64 38.48,-11.17 79.43,-16.64 122.64,-16.64 22.09,0 44.44,1.75 66.78,5.22 22.34,3.22 43.19,7.95 62.55,13.65 19.36,5.95 36.5,12.41 51.65,19.61 14.88,7.45 24.83,13.4 29.77,18.37 4.73,4.73 7.95,8.94 9.7,12.16 1.73,3.49 3.22,7.95 4.46,13.65 1.24,5.47 1.98,12.41 2.48,21.1 0.5,8.46 0.76,18.87 0.76,31.54 0,13.91 -0.25,25.82 -1.01,35.49 -0.74,9.7 -1.98,17.63 -3.72,24.09 -1.73,6.21 -4.21,10.92 -7.2,13.65 -3.22,2.99 -7.45,4.46 -12.9,4.46 -5.22,0 -13.67,-3.47 -25.33,-10.16 -11.68,-6.71 -26.07,-14.16 -42.94,-22.34 -17.13,-7.95 -36.75,-15.15 -59.1,-21.61 -22.34,-6.71 -46.67,-9.93 -73.47,-9.93 -20.87,0 -38.98,2.48 -54.62,7.7 -15.4,4.97 -28.32,12.16 -38.73,21.1 -10.43,8.94 -18.37,19.61 -23.33,32.27 -5.22,12.65 -7.7,26.07 -7.7,39.96 0,20.85 5.7,38.98 17.13,54.13 11.42,15.38 26.82,29.04 45.93,40.96 19.12,11.66 40.96,22.83 65.29,33.26 24.09,10.42 48.91,21.59 74.24,33.01 25.31,11.68 50.14,24.83 74.21,39.72 24.34,14.9 45.95,32.53 65.05,53.12 18.87,20.62 34.25,44.69 45.93,72.73 11.68,27.81 17.38,60.59 17.38,98.32zm702.56 207.3c0,14.14 -0.5,25.82 -1.75,35.49 -1.24,9.44 -2.97,17.13 -5.45,22.85 -2.48,5.95 -5.47,10.18 -9.19,12.9 -3.47,2.73 -7.7,3.98 -11.91,3.98l-472.18 0c-15.89,0 -29.29,-4.71 -40.23,-14.16 -10.92,-9.43 -16.37,-24.81 -16.37,-46.16l0 -820.74c0,-21.34 5.45,-36.74 16.37,-46.16 10.94,-9.44 24.34,-14.16 40.23,-14.16l469.95 0c4.21,0 8.19,1.24 11.66,3.72 3.24,2.48 6.21,6.71 8.69,12.66 2.23,6.21 4.23,13.91 5.47,23.33 1.24,9.68 1.73,21.61 1.73,36.25 0,13.65 -0.49,25.06 -1.73,34.76 -1.24,9.43 -2.99,17.13 -5.47,22.83 -2.48,5.95 -5.45,10.18 -8.69,12.92 -3.47,2.73 -7.45,3.96 -11.66,3.96l-335.89 0 0 229.41 283 0c4.48,0 8.46,1.22 11.93,3.96 3.72,2.73 6.69,6.71 9.17,12.41 2.48,5.47 4.23,12.92 5.47,22.6 1.24,9.43 1.73,20.85 1.73,34.25 0,14.16 -0.49,25.82 -1.73,35.01 -1.24,9.19 -2.99,16.64 -5.47,22.09 -2.48,5.72 -5.45,9.68 -9.17,11.93 -3.47,2.48 -7.45,3.72 -11.93,3.72l-283 0 0 265.14 338.12 0c4.46,0 8.44,1.24 11.91,3.96 3.72,2.73 6.71,6.96 9.19,12.92 2.48,5.7 4.21,13.4 5.45,22.85 1.24,9.68 1.75,21.34 1.75,35.49zm795.16 -787.71c0,14.14 -0.49,26.07 -1.73,36.23 -1.24,9.93 -2.99,17.88 -5.47,23.84 -2.48,6.21 -5.45,10.69 -9.17,13.4 -3.49,2.99 -7.7,4.48 -11.93,4.48l-235.34 0 0 758.91c0,4.71 -1.49,9.19 -4.71,13.17 -3.24,3.72 -8.44,6.94 -15.65,9.43 -7.2,2.23 -17.13,4.23 -29.54,5.7 -12.41,1.49 -27.79,2.23 -46.16,2.23 -18.39,0 -33.77,-0.74 -46.18,-2.23 -12.41,-1.48 -22.34,-3.47 -29.54,-5.7 -7.21,-2.48 -12.41,-5.7 -15.65,-9.43 -3.22,-3.98 -4.71,-8.46 -4.71,-13.17l0 -758.91 -235.34 0c-4.71,0 -8.94,-1.49 -12.41,-4.48 -3.22,-2.72 -6.21,-7.2 -8.69,-13.4 -2.23,-5.95 -4.23,-13.91 -5.47,-23.84 -1.24,-10.16 -1.73,-22.09 -1.73,-36.23 0,-14.41 0.49,-26.82 1.73,-37.01 1.24,-10.16 3.24,-18.37 5.47,-24.32 2.48,-6.21 5.47,-10.43 8.69,-13.15 3.47,-2.73 7.7,-3.98 12.41,-3.98l662.84 0c4.23,0 8.19,1.24 11.93,3.98 3.72,2.72 6.69,6.94 9.17,13.15 2.48,5.95 4.23,14.16 5.47,24.32 1.24,10.18 1.73,22.6 1.73,37.01z"/>
   <path id="1" class="fil4" d="M1453.28 1667.31c0,4.71 -1.48,9.19 -4.71,13.17 -3.22,3.72 -8.44,6.94 -15.63,9.43 -7.21,2.23 -17.14,4.23 -29.05,5.7 -12.16,1.49 -27.79,2.23 -46.67,2.23 -18.37,0 -33.77,-0.74 -46.18,-2.23 -12.41,-1.48 -22.34,-3.47 -29.54,-5.7 -7.2,-2.48 -12.41,-5.7 -15.65,-9.43 -3.22,-3.98 -4.71,-8.46 -4.71,-13.17l0 -889.24c0,-4.71 1.49,-9.19 4.71,-13.17 3.24,-3.72 8.46,-6.94 16.15,-9.43 7.45,-2.48 17.13,-4.21 29.29,-5.7 12.16,-1.49 27.56,-2.23 45.93,-2.23 18.87,0 34.5,0.74 46.67,2.23 11.91,1.49 21.84,3.22 29.05,5.7 7.2,2.48 12.41,5.7 15.63,9.43 3.24,3.98 4.71,8.46 4.71,13.17l0 889.24zm763.64 -256.45c0,49.65 -9.19,92.85 -27.56,130.34 -18.62,37.24 -43.45,68.27 -74.96,93.35 -31.79,24.83 -68.52,43.68 -110.73,56.34 -42.2,12.66 -87.38,18.87 -135.54,18.87 -32.53,0 -62.57,-2.73 -90.62,-8.19 -27.81,-5.47 -52.39,-11.93 -73.74,-19.63 -21.35,-7.45 -39.22,-15.38 -53.63,-23.82 -14.39,-8.46 -24.57,-15.89 -31.03,-22.09 -6.21,-6.46 -10.67,-15.65 -13.4,-27.56 -2.73,-11.93 -3.96,-28.8 -3.96,-51.15 0,-15.15 0.49,-27.56 1.48,-37.74 1.01,-10.16 2.48,-18.37 4.73,-24.81 2.23,-6.21 5.2,-10.69 8.69,-13.42 3.72,-2.73 7.93,-3.96 12.9,-3.96 6.71,0 16.39,3.96 28.8,12.16 12.41,7.93 28.3,16.87 47.66,26.55 19.38,9.68 42.71,18.62 69.77,26.57 26.81,8.19 58.09,12.16 93.58,12.16 23.35,0 44.2,-2.73 62.57,-8.19 18.62,-5.72 34.25,-13.42 47.17,-23.58 12.9,-10.18 22.6,-22.6 29.54,-37.49 6.71,-14.9 10.18,-31.54 10.18,-49.9 0,-21.35 -5.72,-39.72 -17.38,-54.87 -11.68,-15.38 -26.81,-28.78 -45.68,-40.71 -18.62,-11.91 -39.97,-23.08 -63.81,-33.52 -23.58,-10.42 -48.16,-21.34 -73.47,-33.01 -25.33,-11.68 -49.9,-24.83 -73.49,-39.72 -23.84,-14.64 -45.19,-32.27 -63.81,-52.87 -18.85,-20.62 -34,-44.94 -45.68,-73.24 -11.66,-28.05 -17.38,-61.81 -17.38,-101.05 0,-44.92 8.46,-84.64 25.08,-118.91 16.64,-34 39.22,-62.3 67.53,-84.89 28.55,-22.6 61.81,-39.47 100.29,-50.64 38.48,-11.17 79.43,-16.64 122.64,-16.64 22.09,0 44.44,1.75 66.78,5.22 22.34,3.22 43.19,7.95 62.55,13.65 19.36,5.95 36.5,12.41 51.65,19.61 14.88,7.45 24.83,13.4 29.77,18.37 4.73,4.73 7.95,8.94 9.7,12.16 1.73,3.49 3.22,7.95 4.46,13.65 1.24,5.47 1.98,12.41 2.48,21.1 0.5,8.46 0.76,18.87 0.76,31.54 0,13.91 -0.25,25.82 -1.01,35.49 -0.74,9.7 -1.98,17.63 -3.72,24.09 -1.73,6.21 -4.21,10.92 -7.2,13.65 -3.22,2.99 -7.45,4.46 -12.9,4.46 -5.22,0 -13.67,-3.47 -25.33,-10.16 -11.68,-6.71 -26.07,-14.16 -42.94,-22.34 -17.13,-7.95 -36.75,-15.15 -59.1,-21.61 -22.34,-6.71 -46.67,-9.93 -73.47,-9.93 -20.87,0 -38.98,2.48 -54.62,7.7 -15.4,4.97 -28.32,12.16 -38.73,21.1 -10.43,8.94 -18.37,19.61 -23.33,32.27 -5.22,12.65 -7.7,26.07 -7.7,39.96 0,20.85 5.7,38.98 17.13,54.13 11.42,15.38 26.82,29.04 45.93,40.96 19.12,11.66 40.96,22.83 65.29,33.26 24.09,10.42 48.91,21.59 74.24,33.01 25.31,11.68 50.14,24.83 74.21,39.72 24.34,14.9 45.95,32.53 65.05,53.12 18.87,20.62 34.25,44.69 45.93,72.73 11.68,27.81 17.38,60.59 17.38,98.32zm702.56 207.3c0,14.14 -0.5,25.82 -1.75,35.49 -1.24,9.44 -2.97,17.13 -5.45,22.85 -2.48,5.95 -5.47,10.18 -9.19,12.9 -3.47,2.73 -7.7,3.98 -11.91,3.98l-472.18 0c-15.89,0 -29.29,-4.71 -40.23,-14.16 -10.92,-9.43 -16.37,-24.81 -16.37,-46.16l0 -820.74c0,-21.34 5.45,-36.74 16.37,-46.16 10.94,-9.44 24.34,-14.16 40.23,-14.16l469.95 0c4.21,0 8.19,1.24 11.66,3.72 3.24,2.48 6.21,6.71 8.69,12.66 2.23,6.21 4.23,13.91 5.47,23.33 1.24,9.68 1.73,21.61 1.73,36.25 0,13.65 -0.49,25.06 -1.73,34.76 -1.24,9.43 -2.99,17.13 -5.47,22.83 -2.48,5.95 -5.45,10.18 -8.69,12.92 -3.47,2.73 -7.45,3.96 -11.66,3.96l-335.89 0 0 229.41 283 0c4.48,0 8.46,1.22 11.93,3.96 3.72,2.73 6.69,6.71 9.17,12.41 2.48,5.47 4.23,12.92 5.47,22.6 1.24,9.43 1.73,20.85 1.73,34.25 0,14.16 -0.49,25.82 -1.73,35.01 -1.24,9.19 -2.99,16.64 -5.47,22.09 -2.48,5.72 -5.45,9.68 -9.17,11.93 -3.47,2.48 -7.45,3.72 -11.93,3.72l-283 0 0 265.14 338.12 0c4.46,0 8.44,1.24 11.91,3.96 3.72,2.73 6.71,6.96 9.19,12.92 2.48,5.7 4.21,13.4 5.45,22.85 1.24,9.68 1.75,21.34 1.75,35.49zm795.16 -787.71c0,14.14 -0.49,26.07 -1.73,36.23 -1.24,9.93 -2.99,17.88 -5.47,23.84 -2.48,6.21 -5.45,10.69 -9.17,13.4 -3.49,2.99 -7.7,4.48 -11.93,4.48l-235.34 0 0 758.91c0,4.71 -1.49,9.19 -4.71,13.17 -3.24,3.72 -8.44,6.94 -15.65,9.43 -7.2,2.23 -17.13,4.23 -29.54,5.7 -12.41,1.49 -27.79,2.23 -46.16,2.23 -18.39,0 -33.77,-0.74 -46.18,-2.23 -12.41,-1.48 -22.34,-3.47 -29.54,-5.7 -7.21,-2.48 -12.41,-5.7 -15.65,-9.43 -3.22,-3.98 -4.71,-8.46 -4.71,-13.17l0 -758.91 -235.34 0c-4.71,0 -8.94,-1.49 -12.41,-4.48 -3.22,-2.72 -6.21,-7.2 -8.69,-13.4 -2.23,-5.95 -4.23,-13.91 -5.47,-23.84 -1.24,-10.16 -1.73,-22.09 -1.73,-36.23 0,-14.41 0.49,-26.82 1.73,-37.01 1.24,-10.16 3.24,-18.37 5.47,-24.32 2.48,-6.21 5.47,-10.43 8.69,-13.15 3.47,-2.73 7.7,-3.98 12.41,-3.98l662.84 0c4.23,0 8.19,1.24 11.93,3.98 3.72,2.72 6.69,6.94 9.17,13.15 2.48,5.95 4.23,14.16 5.47,24.32 1.24,10.18 1.73,22.6 1.73,37.01z"/>
  </g>
  <g>
   <g>
    <path class="fil0 str4" d="M1164.42 216.53l-13.71 149.95c-25.55,4.14 -51.11,8.91 -76.85,14.37l-9.52 129.17 52.71 46.49 16.32 -0.22 -93.8 1370.47c254.99,56.09 433.95,-81.85 566.79,-158.58l-60.93 -1217.56 22.47 -0.32 44.92 -51.13 -8.29 -122.93c-24.7,-6.03 -49.65,-11.08 -74.86,-15.09l-12.05 -144.62 -160.27 -111.16 -6.53 -78.51 -24.77 -1.39 -1.39 76.6 -160.24 114.45zm5.56 36.18c18.49,-7.52 37.13,-13.85 55.8,-18.96l-5.09 115.48c-20.18,3.9 -40.15,8.62 -59.89,14.07 3.17,-35.01 6.01,-75.58 9.17,-110.58zm68.29 -22.18c29.49,-7.21 59.06,-11.48 88.46,-12.68l0 119.04c-31.75,1.24 -62.95,4.71 -93.64,10.06l5.18 -116.41zm100.76 -13.02c31.93,-0.41 63.54,2.84 94.52,9.71l1.4 114.27c-32.54,-4.05 -64.51,-5.59 -95.92,-4.95l0 -119.04zm106.84 12.68c21.77,5.56 43.18,12.88 64.08,22.11l7.07 104.43c-23.51,-5.85 -46.77,-10.33 -69.73,-13.62l-1.42 -112.92z"/>
    <path id="1" class="fil5" d="M1164.42 216.53l-13.71 149.95c-25.55,4.14 -51.11,8.91 -76.85,14.37l-9.52 129.17 52.71 46.49 16.32 -0.22 -93.8 1370.47c254.99,56.09 433.95,-81.85 566.79,-158.58l-60.93 -1217.56 22.47 -0.32 44.92 -51.13 -8.29 -122.93c-24.7,-6.03 -49.65,-11.08 -74.86,-15.09l-12.05 -144.62 -160.27 -111.16 -6.53 -78.51 -24.77 -1.39 -1.39 76.6 -160.24 114.45zm5.56 36.18c18.49,-7.52 37.13,-13.85 55.8,-18.96l-5.09 115.48c-20.18,3.9 -40.15,8.62 -59.89,14.07 3.17,-35.01 6.01,-75.58 9.17,-110.58zm68.29 -22.18c29.49,-7.21 59.06,-11.48 88.46,-12.68l0 119.04c-31.75,1.24 -62.95,4.71 -93.64,10.06l5.18 -116.41zm100.76 -13.02c31.93,-0.41 63.54,2.84 94.52,9.71l1.4 114.27c-32.54,-4.05 -64.51,-5.59 -95.92,-4.95l0 -119.04zm106.84 12.68c21.77,5.56 43.18,12.88 64.08,22.11l7.07 104.43c-23.51,-5.85 -46.77,-10.33 -69.73,-13.62l-1.42 -112.92z"/>
   </g>
   <g>
    <path class="fil0 str5" d="M48.79 2120.92c365.93,-493.54 799.94,-84.26 1225.21,-169.7 314.97,-63.25 735.25,-476.59 1204.75,-354.01 -532.02,135.63 -914.3,621.68 -1347.7,651.78 -514.48,35.71 -500.39,-279.74 -1082.26,-128.07z"/>
    <path id="1" class="fil6" d="M48.79 2120.92c365.93,-493.54 799.94,-84.26 1225.21,-169.7 314.97,-63.25 735.25,-476.59 1204.75,-354.01 -532.02,135.63 -914.3,621.68 -1347.7,651.78 -514.48,35.71 -500.39,-279.74 -1082.26,-128.07z"/>
   </g>
   <g>
    <path class="fil0 str6" d="M842.13 2275.69c818.49,245.13 899.82,52.3 1325.41,-522.16 -473.75,309.97 -864.38,629.79 -1325.41,522.16z"/>
    <path id="1" class="fil6" d="M842.13 2275.69c818.49,245.13 899.82,52.3 1325.41,-522.16 -473.75,309.97 -864.38,629.79 -1325.41,522.16z"/>
   </g>
   <g>
    <path class="fil3 str7" d="M1447.35 1661.43c0,4.68 -1.49,9.12 -4.7,13.06 -3.18,3.69 -8.37,6.89 -15.51,9.35 -7.14,2.23 -17,4.19 -28.82,5.67 -12.07,1.48 -27.6,2.21 -46.31,2.21 -18.22,0 -33.5,-0.74 -45.82,-2.21 -12.32,-1.48 -22.16,-3.44 -29.31,-5.67 -7.14,-2.46 -12.32,-5.67 -15.53,-9.35 -3.2,-3.94 -4.68,-8.38 -4.68,-13.06l0 -882.32c0,-4.68 1.48,-9.1 4.68,-13.06 3.2,-3.69 8.38,-6.89 16.01,-9.35 7.39,-2.46 17,-4.19 29.07,-5.67 12.07,-1.48 27.34,-2.21 45.57,-2.21 18.71,0 34.23,0.74 46.31,2.21 11.82,1.48 21.68,3.2 28.82,5.67 7.14,2.46 12.32,5.67 15.51,9.35 3.2,3.96 4.7,8.38 4.7,13.06l0 882.32zm757.66 -254.45c0,49.27 -9.1,92.13 -27.33,129.33 -18.48,36.93 -43.1,67.73 -74.39,92.61 -31.54,24.63 -67.98,43.36 -109.86,55.91 -41.88,12.56 -86.71,18.71 -134.49,18.71 -32.27,0 -62.07,-2.7 -89.91,-8.11 -27.58,-5.41 -51.97,-11.82 -73.15,-19.47 -21.17,-7.39 -38.91,-15.27 -53.21,-23.64 -14.28,-8.38 -24.38,-15.78 -30.78,-21.93 -6.15,-6.4 -10.6,-15.53 -13.29,-27.34 -2.72,-11.82 -3.94,-28.57 -3.94,-50.73 0,-15.04 0.49,-27.34 1.48,-37.46 0.97,-10.09 2.46,-18.22 4.68,-24.63 2.21,-6.15 5.16,-10.6 8.62,-13.29 3.69,-2.72 7.88,-3.94 12.81,-3.94 6.66,0 16.26,3.94 28.57,12.07 12.32,7.88 28.08,16.75 47.3,26.36 19.21,9.61 42.37,18.48 69.23,26.36 26.59,8.11 57.64,12.07 92.85,12.07 23.17,0 43.86,-2.72 62.08,-8.13 18.48,-5.67 33.98,-13.29 46.79,-23.4 12.81,-10.09 22.43,-22.42 29.32,-37.19 6.66,-14.79 10.09,-31.28 10.09,-49.51 0,-21.19 -5.67,-39.42 -17.23,-54.46 -11.59,-15.26 -26.61,-28.57 -45.33,-40.39 -18.48,-11.82 -39.65,-22.9 -63.31,-33.26 -23.39,-10.33 -47.78,-21.17 -72.9,-32.74 -25.13,-11.59 -49.51,-24.65 -72.91,-39.42 -23.66,-14.54 -44.83,-32.02 -63.31,-52.48 -18.73,-20.44 -33.75,-44.58 -45.32,-72.66 -11.59,-27.83 -17.25,-61.33 -17.25,-100.24 0,-44.6 8.38,-84 24.88,-118 16.5,-33.75 38.93,-61.83 66.99,-84.25 28.33,-22.42 61.35,-39.16 99.52,-50.25 38.17,-11.08 78.81,-16.5 121.68,-16.5 21.91,0 44.09,1.71 66.26,5.16 22.16,3.2 42.85,7.88 62.07,13.55 19.21,5.92 36.21,12.32 51.24,19.47 14.79,7.39 24.65,13.31 29.56,18.22 4.7,4.7 7.9,8.87 9.61,12.07 1.73,3.45 3.2,7.88 4.44,13.55 1.22,5.41 1.96,12.32 2.46,20.94 0.49,8.38 0.74,18.73 0.74,31.28 0,13.8 -0.25,25.62 -0.99,35.22 -0.74,9.61 -1.96,17.49 -3.69,23.89 -1.73,6.15 -4.19,10.85 -7.14,13.55 -3.2,2.97 -7.39,4.44 -12.81,4.44 -5.18,0 -13.56,-3.45 -25.13,-10.11 -11.59,-6.64 -25.87,-14.03 -42.62,-22.16 -16.98,-7.88 -36.45,-15.02 -58.61,-21.43 -22.18,-6.66 -46.32,-9.86 -72.91,-9.86 -20.69,0 -38.68,2.46 -54.2,7.63 -15.27,4.93 -28.06,12.07 -38.41,20.94 -10.36,8.87 -18.24,19.47 -23.17,32.02 -5.16,12.57 -7.63,25.87 -7.63,39.67 0,20.69 5.67,38.66 17,53.7 11.33,15.26 26.59,28.8 45.57,40.64 18.96,11.57 40.64,22.67 64.78,33.01 23.89,10.34 48.52,21.43 73.65,32.74 25.11,11.59 49.76,24.65 73.65,39.42 24.12,14.79 45.57,32.27 64.53,52.71 18.73,20.45 33.98,44.35 45.57,72.18 11.59,27.6 17.23,60.1 17.23,97.54zm697.09 205.68c0,14.03 -0.49,25.62 -1.73,35.22 -1.22,9.35 -2.95,17 -5.41,22.67 -2.46,5.92 -5.41,10.09 -9.12,12.81 -3.44,2.72 -7.63,3.94 -11.82,3.94l-468.49 0c-15.76,0 -29.07,-4.68 -39.9,-14.05 -10.85,-9.35 -16.26,-24.63 -16.26,-45.8l0 -814.33c0,-21.19 5.41,-36.47 16.26,-45.82 10.83,-9.35 24.14,-14.05 39.9,-14.05l466.28 0c4.19,0 8.13,1.24 11.59,3.71 3.2,2.46 6.15,6.66 8.62,12.56 2.21,6.15 4.17,13.8 5.41,23.15 1.22,9.61 1.73,21.43 1.73,35.96 0,13.55 -0.5,24.88 -1.73,34.49 -1.24,9.37 -2.95,17 -5.41,22.67 -2.46,5.9 -5.41,10.09 -8.62,12.81 -3.45,2.7 -7.39,3.94 -11.59,3.94l-333.26 0 0 227.59 280.79 0c4.44,0 8.38,1.24 11.84,3.94 3.69,2.72 6.64,6.66 9.1,12.32 2.46,5.41 4.19,12.81 5.43,22.42 1.22,9.35 1.71,20.69 1.71,34 0,14.03 -0.49,25.6 -1.71,34.72 -1.24,9.12 -2.97,16.5 -5.43,21.93 -2.46,5.67 -5.41,9.61 -9.1,11.82 -3.45,2.46 -7.39,3.69 -11.84,3.69l-280.79 0 0 263.07 335.48 0c4.44,0 8.38,1.24 11.82,3.94 3.71,2.72 6.66,6.91 9.12,12.81 2.46,5.67 4.19,13.31 5.41,22.67 1.24,9.61 1.73,21.19 1.73,35.22zm788.97 -781.57c0,14.05 -0.49,25.87 -1.73,35.96 -1.22,9.86 -2.95,17.74 -5.41,23.66 -2.46,6.15 -5.41,10.58 -9.12,13.29 -3.45,2.95 -7.63,4.43 -11.82,4.43l-233.51 0 0 753.01c0,4.68 -1.48,9.12 -4.68,13.06 -3.2,3.69 -8.38,6.89 -15.53,9.35 -7.14,2.23 -17,4.19 -29.31,5.67 -12.32,1.48 -27.6,2.21 -45.82,2.21 -18.22,0 -33.5,-0.74 -45.82,-2.21 -12.31,-1.48 -22.16,-3.44 -29.31,-5.67 -7.14,-2.46 -12.32,-5.67 -15.53,-9.35 -3.2,-3.94 -4.68,-8.38 -4.68,-13.06l0 -753.01 -233.51 0c-4.68,0 -8.87,-1.48 -12.32,-4.43 -3.2,-2.72 -6.15,-7.14 -8.62,-13.29 -2.21,-5.92 -4.19,-13.8 -5.41,-23.66 -1.24,-10.09 -1.73,-21.91 -1.73,-35.96 0,-14.28 0.49,-26.61 1.73,-36.7 1.22,-10.09 3.2,-18.22 5.41,-24.14 2.46,-6.15 5.41,-10.34 8.62,-13.06 3.45,-2.7 7.65,-3.94 12.32,-3.94l657.68 0c4.19,0 8.13,1.24 11.82,3.94 3.71,2.72 6.66,6.91 9.12,13.06 2.46,5.92 4.19,14.05 5.41,24.14 1.24,10.09 1.73,22.42 1.73,36.7z"/>
    <path id="1" class="fil7" d="M1447.35 1661.43c0,4.68 -1.49,9.12 -4.7,13.06 -3.18,3.69 -8.37,6.89 -15.51,9.35 -7.14,2.23 -17,4.19 -28.82,5.67 -12.07,1.48 -27.6,2.21 -46.31,2.21 -18.22,0 -33.5,-0.74 -45.82,-2.21 -12.32,-1.48 -22.16,-3.44 -29.31,-5.67 -7.14,-2.46 -12.32,-5.67 -15.53,-9.35 -3.2,-3.94 -4.68,-8.38 -4.68,-13.06l0 -882.32c0,-4.68 1.48,-9.1 4.68,-13.06 3.2,-3.69 8.38,-6.89 16.01,-9.35 7.39,-2.46 17,-4.19 29.07,-5.67 12.07,-1.48 27.34,-2.21 45.57,-2.21 18.71,0 34.23,0.74 46.31,2.21 11.82,1.48 21.68,3.2 28.82,5.67 7.14,2.46 12.32,5.67 15.51,9.35 3.2,3.96 4.7,8.38 4.7,13.06l0 882.32zm757.66 -254.45c0,49.27 -9.1,92.13 -27.33,129.33 -18.48,36.93 -43.1,67.73 -74.39,92.61 -31.54,24.63 -67.98,43.36 -109.86,55.91 -41.88,12.56 -86.71,18.71 -134.49,18.71 -32.27,0 -62.07,-2.7 -89.91,-8.11 -27.58,-5.41 -51.97,-11.82 -73.15,-19.47 -21.17,-7.39 -38.91,-15.27 -53.21,-23.64 -14.28,-8.38 -24.38,-15.78 -30.78,-21.93 -6.15,-6.4 -10.6,-15.53 -13.29,-27.34 -2.72,-11.82 -3.94,-28.57 -3.94,-50.73 0,-15.04 0.49,-27.34 1.48,-37.46 0.97,-10.09 2.46,-18.22 4.68,-24.63 2.21,-6.15 5.16,-10.6 8.62,-13.29 3.69,-2.72 7.88,-3.94 12.81,-3.94 6.66,0 16.26,3.94 28.57,12.07 12.32,7.88 28.08,16.75 47.3,26.36 19.21,9.61 42.37,18.48 69.23,26.36 26.59,8.11 57.64,12.07 92.85,12.07 23.17,0 43.86,-2.72 62.08,-8.13 18.48,-5.67 33.98,-13.29 46.79,-23.4 12.81,-10.09 22.43,-22.42 29.32,-37.19 6.66,-14.79 10.09,-31.28 10.09,-49.51 0,-21.19 -5.67,-39.42 -17.23,-54.46 -11.59,-15.26 -26.61,-28.57 -45.33,-40.39 -18.48,-11.82 -39.65,-22.9 -63.31,-33.26 -23.39,-10.33 -47.78,-21.17 -72.9,-32.74 -25.13,-11.59 -49.51,-24.65 -72.91,-39.42 -23.66,-14.54 -44.83,-32.02 -63.31,-52.48 -18.73,-20.44 -33.75,-44.58 -45.32,-72.66 -11.59,-27.83 -17.25,-61.33 -17.25,-100.24 0,-44.6 8.38,-84 24.88,-118 16.5,-33.75 38.93,-61.83 66.99,-84.25 28.33,-22.42 61.35,-39.16 99.52,-50.25 38.17,-11.08 78.81,-16.5 121.68,-16.5 21.91,0 44.09,1.71 66.26,5.16 22.16,3.2 42.85,7.88 62.07,13.55 19.21,5.92 36.21,12.32 51.24,19.47 14.79,7.39 24.65,13.31 29.56,18.22 4.7,4.7 7.9,8.87 9.61,12.07 1.73,3.45 3.2,7.88 4.44,13.55 1.22,5.41 1.96,12.32 2.46,20.94 0.49,8.38 0.74,18.73 0.74,31.28 0,13.8 -0.25,25.62 -0.99,35.22 -0.74,9.61 -1.96,17.49 -3.69,23.89 -1.73,6.15 -4.19,10.85 -7.14,13.55 -3.2,2.97 -7.39,4.44 -12.81,4.44 -5.18,0 -13.56,-3.45 -25.13,-10.11 -11.59,-6.64 -25.87,-14.03 -42.62,-22.16 -16.98,-7.88 -36.45,-15.02 -58.61,-21.43 -22.18,-6.66 -46.32,-9.86 -72.91,-9.86 -20.69,0 -38.68,2.46 -54.2,7.63 -15.27,4.93 -28.06,12.07 -38.41,20.94 -10.36,8.87 -18.24,19.47 -23.17,32.02 -5.16,12.57 -7.63,25.87 -7.63,39.67 0,20.69 5.67,38.66 17,53.7 11.33,15.26 26.59,28.8 45.57,40.64 18.96,11.57 40.64,22.67 64.78,33.01 23.89,10.34 48.52,21.43 73.65,32.74 25.11,11.59 49.76,24.65 73.65,39.42 24.12,14.79 45.57,32.27 64.53,52.71 18.73,20.45 33.98,44.35 45.57,72.18 11.59,27.6 17.23,60.1 17.23,97.54zm697.09 205.68c0,14.03 -0.49,25.62 -1.73,35.22 -1.22,9.35 -2.95,17 -5.41,22.67 -2.46,5.92 -5.41,10.09 -9.12,12.81 -3.44,2.72 -7.63,3.94 -11.82,3.94l-468.49 0c-15.76,0 -29.07,-4.68 -39.9,-14.05 -10.85,-9.35 -16.26,-24.63 -16.26,-45.8l0 -814.33c0,-21.19 5.41,-36.47 16.26,-45.82 10.83,-9.35 24.14,-14.05 39.9,-14.05l466.28 0c4.19,0 8.13,1.24 11.59,3.71 3.2,2.46 6.15,6.66 8.62,12.56 2.21,6.15 4.17,13.8 5.41,23.15 1.22,9.61 1.73,21.43 1.73,35.96 0,13.55 -0.5,24.88 -1.73,34.49 -1.24,9.37 -2.95,17 -5.41,22.67 -2.46,5.9 -5.41,10.09 -8.62,12.81 -3.45,2.7 -7.39,3.94 -11.59,3.94l-333.26 0 0 227.59 280.79 0c4.44,0 8.38,1.24 11.84,3.94 3.69,2.72 6.64,6.66 9.1,12.32 2.46,5.41 4.19,12.81 5.43,22.42 1.22,9.35 1.71,20.69 1.71,34 0,14.03 -0.49,25.6 -1.71,34.72 -1.24,9.12 -2.97,16.5 -5.43,21.93 -2.46,5.67 -5.41,9.61 -9.1,11.82 -3.45,2.46 -7.39,3.69 -11.84,3.69l-280.79 0 0 263.07 335.48 0c4.44,0 8.38,1.24 11.82,3.94 3.71,2.72 6.66,6.91 9.12,12.81 2.46,5.67 4.19,13.31 5.41,22.67 1.24,9.61 1.73,21.19 1.73,35.22zm788.97 -781.57c0,14.05 -0.49,25.87 -1.73,35.96 -1.22,9.86 -2.95,17.74 -5.41,23.66 -2.46,6.15 -5.41,10.58 -9.12,13.29 -3.45,2.95 -7.63,4.43 -11.82,4.43l-233.51 0 0 753.01c0,4.68 -1.48,9.12 -4.68,13.06 -3.2,3.69 -8.38,6.89 -15.53,9.35 -7.14,2.23 -17,4.19 -29.31,5.67 -12.32,1.48 -27.6,2.21 -45.82,2.21 -18.22,0 -33.5,-0.74 -45.82,-2.21 -12.31,-1.48 -22.16,-3.44 -29.31,-5.67 -7.14,-2.46 -12.32,-5.67 -15.53,-9.35 -3.2,-3.94 -4.68,-8.38 -4.68,-13.06l0 -753.01 -233.51 0c-4.68,0 -8.87,-1.48 -12.32,-4.43 -3.2,-2.72 -6.15,-7.14 -8.62,-13.29 -2.21,-5.92 -4.19,-13.8 -5.41,-23.66 -1.24,-10.09 -1.73,-21.91 -1.73,-35.96 0,-14.28 0.49,-26.61 1.73,-36.7 1.22,-10.09 3.2,-18.22 5.41,-24.14 2.46,-6.15 5.41,-10.34 8.62,-13.06 3.45,-2.7 7.65,-3.94 12.32,-3.94l657.68 0c4.19,0 8.13,1.24 11.82,3.94 3.71,2.72 6.66,6.91 9.12,13.06 2.46,5.92 4.19,14.05 5.41,24.14 1.24,10.09 1.73,22.42 1.73,36.7z"/>
   </g>
   <g>
    <path class="fil3 str8" d="M1157.28 2243.65l0 75.07 -78.45 0 0 -387.81 59.37 0 6.67 12.9c12.9,-10.07 28.14,-15.15 45.73,-15.15 17.86,0 34.34,4.52 49.49,13.55 15.15,8.94 22.76,21.91 22.76,38.86l0 230.04c0,13.44 -5.54,24.18 -16.55,32.26 -11.01,8.1 -24.47,12.14 -40.17,12.14 -21.93,0 -38.21,-3.96 -48.84,-11.86zm27.11 -52.4l0 -198.32c0,-9.7 -4.43,-14.59 -13.37,-14.59 -9.12,0 -13.74,4.89 -13.74,14.59l0 198.88c0,9.32 4.62,14.03 13.74,14.03 8.94,0 13.37,-4.89 13.37,-14.59z"/>
   </g>
   <g>
    <path id="1" class="fil3 str8" d="M1466.07 2063.48l-78.47 0 0 -69.44c0,-9.68 -4.52,-14.57 -13.55,-14.57 -9.03,0 -13.55,4.7 -13.55,14.01l0 257.51 -78.47 0 0 -320.08 78.47 0 0 10.72c10.43,-8.65 26.63,-12.97 48.54,-12.97 15.63,0 28.98,4.14 40.19,12.5 11.19,8.38 16.84,19.39 16.84,33.03l0 89.28z"/>
   </g>
   <g>
    <path id="2" class="fil3 str8" d="M1479.62 2187.96l0 -191.74c0,-45.06 31.05,-67.55 93.24,-67.55 24.09,0 45.15,5.25 63.41,15.71 18.24,10.54 27.36,26.81 27.36,49.11l0 197.21c0,43.18 -30.3,64.82 -90.78,64.82 -62.19,0 -93.24,-22.49 -93.24,-67.55zm105.57 1.6l0 -195.51c0,-10.43 -4.43,-15.71 -13.37,-15.71 -9.12,0 -13.73,5.27 -13.73,15.71l0 195.51c0,10.81 4.61,16.28 13.73,16.28 8.94,0 13.37,-5.47 13.37,-16.28z"/>
   </g>
   <g>
    <path id="3" class="fil3 str8" d="M1693.56 2318.72l0 -46.85 63.61 0c18.53,0 27.85,-9.41 27.85,-28.23 -10.25,7.9 -26.45,11.86 -48.55,11.86 -15.44,0 -28.78,-4.05 -40.08,-12.23 -11.3,-8.19 -16.93,-18.91 -16.93,-32.17l0 -230.04c0,-34.92 20.89,-52.4 62.57,-52.4 10.99,0 25.58,4.7 43.55,14.1l10.25 -11.86 67.64 0 0 315.56c0,20.8 -4.05,38.01 -12.23,51.74 -8.19,13.65 -33.68,20.51 -76.3,20.51l-81.39 0zm91.46 -124.18l0 -201.52c0,-9.79 -4.43,-14.68 -13.37,-14.68 -9.12,0 -13.74,4.89 -13.74,14.68l0 200.97c0,9.79 4.62,14.68 13.74,14.68 8.94,0 13.37,-4.71 13.37,-14.12z"/>
   </g>
   <g>
    <path id="4" class="fil3 str8" d="M2066.7 2063.48l-78.47 0 0 -69.44c0,-9.68 -4.52,-14.57 -13.55,-14.57 -9.03,0 -13.55,4.7 -13.55,14.01l0 257.51 -78.47 0 0 -320.08 78.47 0 0 10.72c10.43,-8.65 26.63,-12.97 48.54,-12.97 15.63,0 28.98,4.14 40.19,12.5 11.19,8.38 16.84,19.39 16.84,33.03l0 89.28z"/>
   </g>
   <g>
    <path id="5" class="fil3 str8" d="M2267.09 2250.99l-69.33 0 0 -12.41c-5.92,11.28 -22.78,16.93 -50.43,16.93 -42.82,0 -64.26,-16.75 -64.26,-50.25l0 -64.26c0,-14.3 5.16,-26.81 15.62,-37.53 10.34,-10.63 31.23,-24 62.66,-39.99 18.15,-9.23 27.29,-16.57 27.29,-22.02l0 -47.42c0,-10.43 -4.52,-15.71 -13.55,-15.71 -10.36,0 -15.44,12.79 -15.44,38.28 0,4.62 0.18,11.39 0.76,20.42 0.76,9.03 1.13,15.81 1.13,20.42l-75.65 0 0 -63.97c0,-43.19 31.23,-64.82 93.6,-64.82 58.43,0 87.59,22.49 87.59,67.55l0 254.77zm-78.45 -59.74l0 -82.52c-18.06,4.43 -27.09,12.52 -27.09,24.29l0 58.23c0,9.7 4.7,14.59 14.1,14.59 8.65,0 12.99,-4.89 12.99,-14.59z"/>
   </g>
   <g>
    <path id="6" class="fil3 str8" d="M2575.8 2250.99l-78.47 0 0 -255.82c0,-9.7 -4.43,-14.59 -13.35,-14.59 -9.14,0 -13.74,4.71 -13.74,14.03l0 256.37 -78.47 0 0 -256.84c0,-9.79 -4.41,-14.68 -13.35,-14.68 -9.14,0 -13.74,4.7 -13.74,14.1l0 257.42 -78.47 0 0 -320.08 78.47 0 0 11.3c10.83,-9.03 27.09,-13.55 48.73,-13.55 18.26,0 34.81,7.23 49.69,21.82 13.73,-14.59 32.54,-21.82 56.43,-21.82 13.65,0 26.45,4.03 38.39,12.22 11.95,8.19 17.88,19.57 17.88,34.07l0 276.04z"/>
   </g>
   <g>
    <path id="7" class="fil3 str8" d="M2778.93 2250.99l-69.33 0 0 -12.41c-5.92,11.28 -22.78,16.93 -50.43,16.93 -42.82,0 -64.26,-16.75 -64.26,-50.25l0 -64.26c0,-14.3 5.16,-26.81 15.62,-37.53 10.34,-10.63 31.23,-24 62.66,-39.99 18.15,-9.23 27.29,-16.57 27.29,-22.02l0 -47.42c0,-10.43 -4.52,-15.71 -13.55,-15.71 -10.36,0 -15.44,12.79 -15.44,38.28 0,4.62 0.18,11.39 0.76,20.42 0.76,9.03 1.13,15.81 1.13,20.42l-75.65 0 0 -63.97c0,-43.19 31.23,-64.82 93.6,-64.82 58.43,0 87.59,22.49 87.59,67.55l0 254.77zm-78.45 -59.74l0 -82.52c-18.06,4.43 -27.09,12.52 -27.09,24.29l0 58.23c0,9.7 4.7,14.59 14.1,14.59 8.65,0 12.99,-4.89 12.99,-14.59z"/>
   </g>
   <g>
    <path id="8" class="fil3 str8" d="M2980.93 2072.51l-78.45 0 0 -78.47c0,-10.43 -4.43,-15.71 -13.37,-15.71 -9.12,0 -13.74,5.27 -13.74,15.71l0 195.51c0,10.81 4.62,16.28 13.74,16.28 8.94,0 13.37,-5.36 13.37,-16.19l0 -76.96 78.45 0 0 78c0,43.18 -30.3,64.82 -90.8,64.82 -62.17,0 -93.22,-22.49 -93.22,-67.55l0 -191.74c0,-45.06 31.05,-67.55 93.22,-67.55 60.5,0 90.8,21.53 90.8,64.73l0 79.12z"/>
   </g>
   <g>
    <path id="9" class="fil3 str8" d="M3075.22 1913.41l-78.47 0 0 -57.57 78.47 0 0 57.57zm0 337.58l-78.47 0 0 -320.08 78.47 0 0 320.08z"/>
   </g>
   <g>
    <path id="10" class="fil3 str8" d="M3090.46 2187.96l0 -191.74c0,-45.06 31.05,-67.55 93.24,-67.55 24.09,0 45.15,5.25 63.41,15.71 18.24,10.54 27.36,26.81 27.36,49.11l0 197.21c0,43.18 -30.3,64.82 -90.78,64.82 -62.19,0 -93.24,-22.49 -93.24,-67.55zm105.57 1.6l0 -195.51c0,-10.43 -4.43,-15.71 -13.37,-15.71 -9.12,0 -13.73,5.27 -13.73,15.71l0 195.51c0,10.81 4.61,16.28 13.73,16.28 8.94,0 13.37,-5.47 13.37,-16.28z"/>
   </g>
   <g>
    <path id="11" class="fil3 str8" d="M3474.31 2250.99l-78.45 0 0 -256.95c0,-9.68 -4.52,-14.57 -13.56,-14.57 -9.03,0 -13.55,4.7 -13.55,14.01l0 257.51 -78.45 0 0 -320.08 78.45 0 0 10.72c10.45,-8.65 26.63,-12.97 48.55,-12.97 14.1,0 27.18,3.85 39.15,11.57 11.95,7.72 17.86,19 17.86,33.97l0 276.79z"/>
   </g>
   <path id="12" class="fil7" d="M1157.28 2243.65l0 75.07 -78.45 0 0 -387.81 59.37 0 6.67 12.9c12.9,-10.07 28.14,-15.15 45.73,-15.15 17.86,0 34.34,4.52 49.49,13.55 15.15,8.94 22.76,21.91 22.76,38.86l0 230.04c0,13.44 -5.54,24.18 -16.55,32.26 -11.01,8.1 -24.47,12.14 -40.17,12.14 -21.93,0 -38.21,-3.96 -48.84,-11.86zm27.11 -52.4l0 -198.32c0,-9.7 -4.43,-14.59 -13.37,-14.59 -9.12,0 -13.74,4.89 -13.74,14.59l0 198.88c0,9.32 4.62,14.03 13.74,14.03 8.94,0 13.37,-4.89 13.37,-14.59z"/>
   <path id="13" class="fil7" d="M1466.07 2063.48l-78.47 0 0 -69.44c0,-9.68 -4.52,-14.57 -13.55,-14.57 -9.03,0 -13.55,4.7 -13.55,14.01l0 257.51 -78.47 0 0 -320.08 78.47 0 0 10.72c10.43,-8.65 26.63,-12.97 48.54,-12.97 15.63,0 28.98,4.14 40.19,12.5 11.19,8.38 16.84,19.39 16.84,33.03l0 89.28z"/>
   <path id="14" class="fil7" d="M1479.62 2187.96l0 -191.74c0,-45.06 31.05,-67.55 93.24,-67.55 24.09,0 45.15,5.25 63.41,15.71 18.24,10.54 27.36,26.81 27.36,49.11l0 197.21c0,43.18 -30.3,64.82 -90.78,64.82 -62.19,0 -93.24,-22.49 -93.24,-67.55zm105.57 1.6l0 -195.51c0,-10.43 -4.43,-15.71 -13.37,-15.71 -9.12,0 -13.73,5.27 -13.73,15.71l0 195.51c0,10.81 4.61,16.28 13.73,16.28 8.94,0 13.37,-5.47 13.37,-16.28z"/>
   <path id="15" class="fil7" d="M1693.56 2318.72l0 -46.85 63.61 0c18.53,0 27.85,-9.41 27.85,-28.23 -10.25,7.9 -26.45,11.86 -48.55,11.86 -15.44,0 -28.78,-4.05 -40.08,-12.23 -11.3,-8.19 -16.93,-18.91 -16.93,-32.17l0 -230.04c0,-34.92 20.89,-52.4 62.57,-52.4 10.99,0 25.58,4.7 43.55,14.1l10.25 -11.86 67.64 0 0 315.56c0,20.8 -4.05,38.01 -12.23,51.74 -8.19,13.65 -33.68,20.51 -76.3,20.51l-81.39 0zm91.46 -124.18l0 -201.52c0,-9.79 -4.43,-14.68 -13.37,-14.68 -9.12,0 -13.74,4.89 -13.74,14.68l0 200.97c0,9.79 4.62,14.68 13.74,14.68 8.94,0 13.37,-4.71 13.37,-14.12z"/>
   <path id="16" class="fil7" d="M2066.7 2063.48l-78.47 0 0 -69.44c0,-9.68 -4.52,-14.57 -13.55,-14.57 -9.03,0 -13.55,4.7 -13.55,14.01l0 257.51 -78.47 0 0 -320.08 78.47 0 0 10.72c10.43,-8.65 26.63,-12.97 48.54,-12.97 15.63,0 28.98,4.14 40.19,12.5 11.19,8.38 16.84,19.39 16.84,33.03l0 89.28z"/>
   <path id="17" class="fil7" d="M2267.09 2250.99l-69.33 0 0 -12.41c-5.92,11.28 -22.78,16.93 -50.43,16.93 -42.82,0 -64.26,-16.75 -64.26,-50.25l0 -64.26c0,-14.3 5.16,-26.81 15.62,-37.53 10.34,-10.63 31.23,-24 62.66,-39.99 18.15,-9.23 27.29,-16.57 27.29,-22.02l0 -47.42c0,-10.43 -4.52,-15.71 -13.55,-15.71 -10.36,0 -15.44,12.79 -15.44,38.28 0,4.62 0.18,11.39 0.76,20.42 0.76,9.03 1.13,15.81 1.13,20.42l-75.65 0 0 -63.97c0,-43.19 31.23,-64.82 93.6,-64.82 58.43,0 87.59,22.49 87.59,67.55l0 254.77zm-78.45 -59.74l0 -82.52c-18.06,4.43 -27.09,12.52 -27.09,24.29l0 58.23c0,9.7 4.7,14.59 14.1,14.59 8.65,0 12.99,-4.89 12.99,-14.59z"/>
   <path id="18" class="fil7" d="M2575.8 2250.99l-78.47 0 0 -255.82c0,-9.7 -4.43,-14.59 -13.35,-14.59 -9.14,0 -13.74,4.71 -13.74,14.03l0 256.37 -78.47 0 0 -256.84c0,-9.79 -4.41,-14.68 -13.35,-14.68 -9.14,0 -13.74,4.7 -13.74,14.1l0 257.42 -78.47 0 0 -320.08 78.47 0 0 11.3c10.83,-9.03 27.09,-13.55 48.73,-13.55 18.26,0 34.81,7.23 49.69,21.82 13.73,-14.59 32.54,-21.82 56.43,-21.82 13.65,0 26.45,4.03 38.39,12.22 11.95,8.19 17.88,19.57 17.88,34.07l0 276.04z"/>
   <path id="19" class="fil7" d="M2778.93 2250.99l-69.33 0 0 -12.41c-5.92,11.28 -22.78,16.93 -50.43,16.93 -42.82,0 -64.26,-16.75 -64.26,-50.25l0 -64.26c0,-14.3 5.16,-26.81 15.62,-37.53 10.34,-10.63 31.23,-24 62.66,-39.99 18.15,-9.23 27.29,-16.57 27.29,-22.02l0 -47.42c0,-10.43 -4.52,-15.71 -13.55,-15.71 -10.36,0 -15.44,12.79 -15.44,38.28 0,4.62 0.18,11.39 0.76,20.42 0.76,9.03 1.13,15.81 1.13,20.42l-75.65 0 0 -63.97c0,-43.19 31.23,-64.82 93.6,-64.82 58.43,0 87.59,22.49 87.59,67.55l0 254.77zm-78.45 -59.74l0 -82.52c-18.06,4.43 -27.09,12.52 -27.09,24.29l0 58.23c0,9.7 4.7,14.59 14.1,14.59 8.65,0 12.99,-4.89 12.99,-14.59z"/>
   <path id="20" class="fil7" d="M2980.93 2072.51l-78.45 0 0 -78.47c0,-10.43 -4.43,-15.71 -13.37,-15.71 -9.12,0 -13.74,5.27 -13.74,15.71l0 195.51c0,10.81 4.62,16.28 13.74,16.28 8.94,0 13.37,-5.36 13.37,-16.19l0 -76.96 78.45 0 0 78c0,43.18 -30.3,64.82 -90.8,64.82 -62.17,0 -93.22,-22.49 -93.22,-67.55l0 -191.74c0,-45.06 31.05,-67.55 93.22,-67.55 60.5,0 90.8,21.53 90.8,64.73l0 79.12z"/>
   <path id="21" class="fil7" d="M3075.22 1913.41l-78.47 0 0 -57.57 78.47 0 0 57.57zm0 337.58l-78.47 0 0 -320.08 78.47 0 0 320.08z"/>
   <path id="22" class="fil7" d="M3090.46 2187.96l0 -191.74c0,-45.06 31.05,-67.55 93.24,-67.55 24.09,0 45.15,5.25 63.41,15.71 18.24,10.54 27.36,26.81 27.36,49.11l0 197.21c0,43.18 -30.3,64.82 -90.78,64.82 -62.19,0 -93.24,-22.49 -93.24,-67.55zm105.57 1.6l0 -195.51c0,-10.43 -4.43,-15.71 -13.37,-15.71 -9.12,0 -13.73,5.27 -13.73,15.71l0 195.51c0,10.81 4.61,16.28 13.73,16.28 8.94,0 13.37,-5.47 13.37,-16.28z"/>
   <path id="23" class="fil7" d="M3474.31 2250.99l-78.45 0 0 -256.95c0,-9.68 -4.52,-14.57 -13.56,-14.57 -9.03,0 -13.55,4.7 -13.55,14.01l0 257.51 -78.45 0 0 -320.08 78.45 0 0 10.72c10.45,-8.65 26.63,-12.97 48.55,-12.97 14.1,0 27.18,3.85 39.15,11.57 11.95,7.72 17.86,19 17.86,33.97l0 276.79z"/>
  </g>
 </g>
</svg>
